# xmcd CD database file
# Copyright (C) 1996 Ti Kan
#
# Track frame offsets:
# 	150
# 	18395
# 	35855
# 	54979
# 	76127
# 	95850
# 	108754
# 	124966
# 	145090
# 	167357
#
# Disc length: 2402 seconds
#
# Revision: 1
# Processed by: cddbd v1.4b41PL1 Copyright (c) Steve Scherf et al.
# Submitted via: DiscPlay 3.4.1
#
DISCID=7c09600a
DTITLE=Teddy Morgan - Ridin' In Style
DYEAR=1900
DGENRE=
TTITLE0=Make Up Your Mind
TTITLE1=Find Her If It Kills Me
TTITLE2=Goin' Back Home
TTITLE3=Meddlin'
TTITLE4=Cryin' Time Again
TTITLE5=I'm Looped
TTITLE6=She's Gone
TTITLE7=Dear Ted Letter
TTITLE8=Alexandria, VA.
TTITLE9=Love Me Right
EXTD=
EXTT0=
EXTT1=
EXTT2=
EXTT3=
EXTT4=
EXTT5=
EXTT6=
EXTT7=
EXTT8=
EXTT9=
PLAYORDER=
